<?xml version="1.0" standalone="no"?>
<!DOCTYPE svg PUBLIC "-//W3C//DTD SVG 20010904//EN"
 "http://www.w3.org/TR/2001/REC-SVG-20010904/DTD/svg10.dtd">
<svg version="1.0" xmlns="http://www.w3.org/2000/svg"
 width="1920.000000pt" height="1200.000000pt" viewBox="0 0 1920.000000 1200.000000"
 preserveAspectRatio="xMidYMid meet">

<g transform="translate(0.000000,1200.000000) scale(0.100000,-0.100000)"
fill="#000000" stroke="none">
<path d="M0 6000 l0 -6000 9600 0 9600 0 0 3220 c0 3060 -1 3220 -17 3220 -17
1 -17 1 0 14 16 13 17 157 17 2780 l0 2766 -9600 0 -9600 0 0 -6000z m16510
4625 c0 -8 -7 -15 -15 -15 -16 0 -20 12 -8 23 11 12 23 8 23 -8z m530 -96 c0
-5 -7 -9 -15 -9 -15 0 -20 12 -9 23 8 8 24 -1 24 -14z m653 -25 c-7 -18 -33
-18 -33 -1 0 19 10 27 25 20 8 -2 11 -11 8 -19z m-113 -74 c0 -5 -4 -10 -10
-10 -5 0 -10 5 -10 10 0 6 5 10 10 10 6 0 10 -4 10 -10z m995 -160 c-3 -5 -10
-10 -16 -10 -5 0 -9 5 -9 10 0 6 7 10 16 10 8 0 12 -4 9 -10z m-545 -40 c0 -5
-5 -10 -11 -10 -5 0 -7 5 -4 10 3 6 8 10 11 10 2 0 4 -4 4 -10z m710 -164 c0
-16 -14 -36 -25 -36 -17 0 -28 17 -20 30 6 10 45 15 45 6z m-740 -20 c0 -3 -4
-8 -10 -11 -5 -3 -10 -1 -10 4 0 6 5 11 10 11 6 0 10 -2 10 -4z m917 -130 c3
-2 0 -13 -6 -24 -7 -14 -18 -18 -35 -15 -22 5 -23 8 -14 28 9 21 39 27 55 11z
m-9387 -96 c0 -5 -2 -10 -4 -10 -3 0 -8 5 -11 10 -3 6 -1 10 4 10 6 0 11 -4
11 -10z m-330 -35 c0 -8 3 -15 8 -16 4 0 25 -2 46 -5 46 -4 56 -12 36 -24 -13
-8 -12 -10 3 -10 10 0 27 4 37 10 10 5 40 11 67 12 26 2 51 7 56 13 4 6 10 5
16 -4 6 -9 28 -16 53 -17 24 -1 46 -3 51 -3 4 -1 7 -8 7 -17 0 -13 3 -14 14
-5 10 9 16 9 21 1 4 -6 12 -9 19 -7 6 3 45 1 86 -4 41 -5 92 -9 113 -9 26 1
37 -4 37 -14 0 -8 6 -17 13 -19 9 -4 8 -8 -3 -16 -13 -10 -12 -13 5 -26 11 -9
26 -13 33 -10 18 7 43 -20 46 -50 3 -31 24 -54 34 -40 17 24 102 46 102 26 0
-11 -23 -31 -35 -31 -5 0 -3 5 5 10 12 8 12 10 -5 10 -11 -1 -31 -10 -44 -21
-21 -17 -22 -22 -10 -30 12 -8 12 -10 -1 -18 -17 -12 -16 -12 34 -41 l40 -22
25 31 c29 35 36 38 44 17 4 -9 0 -12 -11 -9 -23 5 -49 -56 -29 -69 6 -5 20 -6
30 -4 9 2 17 -1 17 -6 0 -6 6 -6 14 1 12 10 20 9 42 -6 l27 -17 -24 -7 c-13
-4 -38 -7 -56 -8 -17 -1 -35 -5 -38 -11 -3 -5 -17 -10 -31 -10 -13 0 -24 -5
-24 -11 0 -5 3 -8 8 -6 4 3 44 8 90 12 75 6 82 5 83 -12 0 -10 3 -13 6 -5 7
17 23 15 23 -3 0 -8 10 -19 21 -26 14 -7 19 -7 15 0 -4 5 14 0 39 -12 52 -26
62 -41 28 -44 -54 -3 -57 -53 -3 -53 30 0 37 -13 21 -39 -5 -8 -16 -11 -30 -6
-16 5 -21 2 -21 -11 0 -12 -3 -14 -13 -6 -10 8 -16 6 -25 -9 -7 -10 -22 -19
-35 -19 -18 -1 -19 -2 -6 -10 15 -8 15 -15 2 -66 -14 -54 -44 -113 -75 -145
-7 -8 -19 -23 -27 -34 -7 -11 10 5 39 35 43 46 48 49 31 20 -11 -19 -34 -50
-51 -68 -16 -18 -30 -37 -30 -43 0 -5 -5 -9 -12 -9 -6 0 -9 -2 -6 -5 8 -8
-133 -145 -149 -145 -8 0 -33 -18 -55 -41 -22 -22 -61 -50 -87 -61 -37 -16
-42 -22 -27 -27 15 -6 10 -11 -25 -27 -24 -10 -45 -18 -46 -17 -1 1 -28 -11
-59 -27 -31 -17 -64 -30 -74 -30 -11 0 -22 -4 -25 -10 -3 -5 -17 -10 -31 -10
-14 0 -38 -7 -54 -15 -17 -9 -42 -20 -57 -25 l-28 -10 25 20 c14 11 28 20 33
20 15 0 98 43 93 48 -8 7 -115 -38 -309 -132 -98 -47 -180 -86 -183 -86 -3 0
-18 -8 -32 -19 -40 -27 -365 -191 -380 -191 -7 0 -11 -3 -9 -7 3 -5 -5 -8 -16
-9 -12 -1 -50 -9 -85 -18 -34 -10 -71 -14 -82 -11 -10 3 -61 -5 -112 -19 -51
-15 -107 -26 -125 -26 -18 0 -47 -7 -65 -15 -18 -8 -78 -26 -134 -40 -56 -13
-146 -43 -200 -66 -54 -22 -115 -42 -134 -45 -19 -2 -55 -9 -80 -14 -25 -6
-70 -11 -102 -13 -31 -1 -55 -6 -55 -11 1 -5 -4 -11 -12 -14 -10 -3 -13 1 -9
16 4 15 2 19 -9 15 -7 -3 -22 2 -33 12 -11 10 -28 15 -40 12 -11 -3 -18 -1
-14 4 3 5 13 9 22 9 15 1 15 2 -2 15 -19 14 -19 15 6 15 15 0 29 -6 31 -12 3
-8 6 -6 6 5 1 13 10 17 34 17 46 0 50 8 20 34 -23 20 -24 25 -13 45 6 13 13
34 14 46 2 18 -1 21 -18 17 -12 -3 -26 -9 -32 -14 -7 -5 -14 -3 -17 7 -4 8
-13 12 -21 9 -11 -4 -13 0 -9 18 3 13 10 29 16 36 7 9 3 12 -18 12 -22 0 -25
3 -16 14 9 11 9 15 0 18 -8 3 -10 11 -6 22 7 17 9 18 25 2 17 -15 20 -14 43
12 l24 27 -26 -23 -26 -22 -18 20 c-16 18 -16 20 -2 20 10 0 17 -6 17 -12 0
-9 3 -10 8 -2 4 6 16 15 26 21 18 10 18 11 -3 18 -13 4 -28 1 -38 -7 -14 -11
-15 -10 -8 12 4 14 16 35 27 46 13 15 16 24 9 29 -8 4 -3 13 11 25 13 11 17
19 11 20 -19 0 -16 23 7 48 11 12 20 30 20 42 0 12 9 24 23 29 19 8 20 10 5
16 -22 9 -23 43 -3 69 8 10 12 22 10 26 -3 5 2 11 11 14 9 3 14 12 11 20 -3 8
0 22 7 32 18 27 26 63 15 70 -5 3 -9 10 -9 16 0 7 5 7 14 -1 11 -9 15 -8 20 4
3 9 11 13 16 10 7 -4 9 2 5 17 -4 17 3 32 26 58 27 29 31 31 26 13 -7 -32 -1
-29 48 22 47 50 58 48 70 -17 7 -38 43 -72 62 -60 6 4 13 17 17 30 5 16 3 24
-9 29 -14 5 -16 14 -11 44 6 38 65 158 92 190 8 8 14 21 14 27 0 7 4 12 8 12
4 0 18 20 30 45 12 25 28 45 36 45 17 0 55 50 49 65 -2 6 6 21 18 34 20 22 21
24 5 33 -16 9 -16 12 -2 27 9 10 15 36 14 70 0 40 4 57 16 63 9 5 14 13 11 18
-3 5 4 11 15 15 11 3 20 12 20 20 0 15 43 45 65 45 8 0 15 4 15 9 0 5 11 12
25 15 13 3 29 15 35 26 6 11 17 20 24 20 7 0 30 11 51 25 29 20 40 23 51 14 8
-7 17 -9 21 -5 3 3 1 6 -5 6 -7 0 -12 5 -12 10 0 14 27 12 33 -2 4 -8 6 -7 6
4 1 9 -5 19 -11 21 -7 3 -4 6 6 6 11 1 17 4 13 7 -11 11 32 43 69 50 20 4 44
15 53 26 38 46 111 63 130 31 6 -10 11 -12 11 -5 0 6 6 12 14 12 7 0 19 7 26
15 7 8 23 15 36 15 12 0 26 5 29 10 3 6 1 10 -5 10 -6 0 -8 5 -4 11 4 8 9 8
17 0 14 -14 58 -14 93 -1 19 8 29 8 34 0 5 -7 36 -9 98 -4 76 6 90 9 81 20 -9
11 -5 14 25 14 25 0 36 -4 36 -15z m385 -15 c-3 -5 -12 -10 -18 -10 -7 0 -6 4
3 10 19 12 23 12 15 0z m523 -261 c-2 -6 3 -14 11 -17 8 -2 11 0 7 6 -3 6 -1
14 6 18 7 4 10 4 6 -1 -4 -4 -1 -13 8 -20 13 -9 10 -11 -18 -11 -22 0 -32 -4
-30 -13 1 -7 -2 -10 -8 -6 -8 5 -7 11 1 21 9 11 8 14 -2 14 -11 0 -11 2 1 10
19 12 21 12 18 -1z m567 -9 c3 -5 1 -10 -4 -10 -6 0 -11 5 -11 10 0 6 2 10 4
10 3 0 8 -4 11 -10z m485 -299 c0 -5 -7 -11 -14 -14 -10 -4 -13 -1 -9 9 6 15
23 19 23 5z m-267 -32 c-6 -6 -9 -19 -6 -28 4 -12 3 -13 -5 -2 -6 9 -12 10
-16 2 -9 -15 55 -53 69 -41 7 6 11 2 12 -11 1 -11 -2 -17 -6 -14 -5 2 -14 -2
-21 -10 -11 -13 -10 -14 4 -9 12 5 15 2 10 -10 -5 -12 -1 -16 16 -14 13 2 25
-3 28 -11 3 -8 0 -11 -6 -7 -6 3 -14 1 -18 -5 -3 -6 0 -15 7 -20 7 -4 10 -11
6 -15 -3 -4 -14 -1 -23 7 -16 13 -16 12 -6 -8 10 -17 19 -21 47 -17 30 4 35 1
35 -16 0 -11 3 -20 8 -20 11 0 44 -64 40 -80 -2 -8 5 -14 17 -15 17 0 20 -7
20 -42 0 -42 -7 -54 -21 -32 -3 6 -14 9 -24 6 -13 -3 -16 0 -12 15 4 15 7 17
13 6 7 -11 10 -10 21 1 7 8 8 11 2 8 -13 -8 -64 39 -64 59 0 8 -6 14 -14 12
-8 -2 -22 6 -33 18 -10 11 -26 23 -36 27 -11 4 -15 12 -11 18 4 8 3 9 -5 5 -8
-6 -9 -12 -2 -20 6 -7 8 -16 4 -20 -4 -4 0 -4 10 0 12 4 17 1 17 -11 0 -9 -4
-14 -9 -11 -5 3 -12 -1 -15 -10 -3 -8 -2 -13 3 -10 5 3 11 -3 14 -13 3 -15 1
-18 -12 -14 -13 4 -13 3 2 -7 9 -6 17 -18 17 -26 0 -8 11 -20 25 -26 14 -6 26
-15 26 -20 1 -4 2 -12 3 -17 2 -17 14 -22 22 -10 4 8 3 10 -4 5 -8 -5 -10 -2
-6 9 6 14 8 14 19 -2 11 -15 11 -19 -1 -26 -10 -6 -11 -13 -4 -26 7 -14 6 -22
-5 -31 -19 -16 -10 -30 15 -23 16 4 18 8 9 19 -9 11 -8 14 2 14 11 0 11 2 -1
10 -9 6 -11 10 -3 10 7 0 10 7 7 15 -4 8 -1 15 6 15 6 0 8 5 5 10 -3 6 0 10 7
10 10 0 9 3 -2 10 -8 5 -11 12 -7 17 11 11 26 -17 19 -36 -5 -14 -3 -14 11 -2
13 10 17 10 17 1 0 -7 6 -10 14 -7 10 4 14 0 13 -14 -1 -19 -17 -28 -17 -8 0
5 -5 7 -10 4 -6 -4 -17 -1 -25 5 -19 16 -19 1 -1 -23 11 -14 15 -15 20 -5 5
10 7 10 12 1 4 -10 11 -10 27 -2 20 9 20 9 5 -4 -10 -8 -16 -17 -13 -21 3 -3
-1 -2 -7 4 -22 19 -29 10 -11 -13 17 -24 17 -24 34 -4 14 18 16 19 22 3 4 -10
1 -19 -8 -22 -8 -4 -12 -10 -9 -15 3 -5 10 -6 16 -3 7 4 8 2 4 -5 -4 -6 -12
-8 -18 -5 -6 4 -15 0 -20 -7 -7 -11 -8 -9 -4 5 6 16 4 17 -9 6 -9 -7 -18 -10
-22 -6 -3 3 0 6 7 6 7 0 11 2 9 4 -2 2 -6 4 -9 3 -3 0 -15 5 -27 12 -19 10
-24 9 -35 -9 -15 -24 -30 -27 -21 -3 4 11 3 14 -6 9 -6 -4 -17 -3 -24 2 -12
10 -71 25 -83 22 -3 -1 -20 11 -36 27 -17 15 -28 22 -23 14 6 -10 2 -12 -13
-7 -11 4 -23 2 -27 -3 -4 -7 0 -8 11 -4 13 5 15 2 9 -17 -5 -15 -3 -20 3 -16
6 3 13 2 17 -4 3 -5 -3 -10 -15 -10 -14 0 -19 -4 -15 -12 4 -7 0 -5 -8 4 -8
10 -17 15 -20 11 -4 -3 -7 0 -7 8 0 8 -6 4 -16 -9 -16 -23 -11 -47 8 -36 6 4
5 -3 -2 -16 -6 -12 -9 -31 -7 -42 3 -10 -1 -34 -8 -51 -11 -24 -14 -27 -15
-12 -1 19 -1 19 -14 2 -9 -12 -16 -14 -21 -8 -9 16 -25 13 -19 -3 3 -7 -2 -16
-10 -19 -9 -4 -16 -2 -16 2 0 13 -40 1 -41 -13 0 -6 -3 -4 -7 5 -6 13 -12 14
-32 7 -15 -6 -20 -12 -12 -15 6 -3 9 -10 5 -15 -4 -7 1 -9 15 -6 19 5 20 3 11
-20 -16 -42 -29 -54 -45 -41 -10 8 -13 32 -10 90 4 93 -1 129 -20 129 -8 0
-14 5 -14 11 0 5 4 8 9 4 6 -3 6 7 0 27 -5 18 -9 34 -9 36 0 2 -4 0 -10 -3 -5
-3 -10 3 -10 14 0 12 4 21 9 21 5 0 11 14 15 31 5 27 111 199 123 199 2 0 1
-5 -3 -11 -4 -7 -1 -10 7 -7 8 3 13 11 11 17 -1 7 2 10 7 6 6 -3 22 8 37 24
21 24 30 28 45 20 14 -7 17 -6 13 4 -5 15 22 31 37 22 7 -5 -8 54 -18 65 -2 2
-9 -2 -14 -10 -7 -11 -9 -8 -7 15 1 17 7 36 13 44 7 11 7 13 -2 7 -7 -4 -13
-3 -13 1 0 14 34 30 58 27 12 -2 22 1 22 7 0 7 6 7 17 -2 14 -12 16 -12 11 1
-3 8 -16 15 -30 15 -17 -1 -24 4 -21 12 5 12 24 17 39 11 3 -2 10 5 15 15 6 9
15 17 21 17 9 0 9 -3 1 -11z m-2863 -69 c0 -5 -4 -10 -10 -10 -5 0 -10 5 -10
10 0 6 5 10 10 10 6 0 10 -4 10 -10z m10483 -35 c-6 -18 -19 -19 -29 -4 -7 12
15 31 28 23 4 -3 5 -11 1 -19z m-8146 -7 c-3 -8 -6 -5 -6 6 -1 11 2 17 5 13 3
-3 4 -12 1 -19z m378 2 c-3 -5 -2 -10 4 -10 6 0 8 -7 5 -15 -9 -23 -21 -18
-18 8 3 27 3 27 10 27 3 0 2 -4 -1 -10z m-365 -60 c-6 -11 -12 -20 -14 -20 -2
0 -2 9 1 20 3 11 9 20 15 20 5 0 4 -9 -2 -20z m80 -15 c-7 -9 -15 -13 -18 -10
-3 2 1 11 8 20 7 9 15 13 18 10 3 -2 -1 -11 -8 -20z m990 5 c0 -5 -4 -10 -10
-10 -5 0 -10 5 -10 10 0 6 5 10 10 10 6 0 10 -4 10 -10z m-3865 -70 c3 -5 1
-10 -4 -10 -6 0 -11 5 -11 10 0 6 2 10 4 10 3 0 8 -4 11 -10z m3529 -89 c-4
-3 -9 0 -11 7 -4 10 -8 10 -21 0 -15 -12 -16 -11 -3 5 11 13 17 15 28 6 7 -7
11 -15 7 -18z m-3384 -41 c0 -5 -4 -10 -10 -10 -5 0 -10 5 -10 10 0 6 5 10 10
10 6 0 10 -4 10 -10z m3250 0 c0 -5 -5 -10 -11 -10 -5 0 -7 5 -4 10 3 6 8 10
11 10 2 0 4 -4 4 -10z m145 1 c-3 -5 -1 -12 5 -16 5 -3 10 -14 10 -23 0 -13
-3 -12 -16 6 -13 19 -12 42 2 42 3 0 3 -4 -1 -9z m76 -20 c4 7 11 10 16 6 4
-5 1 -12 -7 -17 -22 -14 -30 -12 -29 8 0 12 2 13 6 3 4 -11 7 -11 14 0z m-36
-38 c-6 -24 -5 -25 11 -12 11 9 15 9 10 2 -4 -7 -2 -13 3 -13 6 0 11 -4 11 -9
0 -12 -24 -8 -43 7 -16 13 -12 52 5 52 6 0 7 -11 3 -27z m-645 -143 c0 -5 -4
-10 -10 -10 -5 0 -10 5 -10 10 0 6 5 10 10 10 6 0 10 -4 10 -10z m570 -12 c0
-13 -23 -5 -28 10 -2 7 2 10 12 6 9 -3 16 -11 16 -16z m80 -28 c0 -5 -2 -10
-4 -10 -3 0 -8 5 -11 10 -3 6 -1 10 4 10 6 0 11 -4 11 -10z m30 -110 c0 -5 -2
-10 -4 -10 -3 0 -8 5 -11 10 -3 6 -1 10 4 10 6 0 11 -4 11 -10z m-1030 -15 c0
-3 -9 -15 -20 -27 -15 -16 -20 -18 -20 -7 0 8 5 20 12 27 12 12 28 16 28 7z
m-520 -135 c-8 -5 -19 -10 -25 -10 -5 0 -3 5 5 10 8 5 20 10 25 10 6 0 3 -5
-5 -10z m-60 -25 c-14 -8 -32 -14 -40 -14 -8 0 -1 6 15 14 40 18 57 18 25 0z
m8085 -5 c-3 -5 -13 -10 -21 -10 -8 0 -12 5 -9 10 3 6 13 10 21 10 8 0 12 -4
9 -10z m-8554 -121 c-90 -44 -165 -78 -168 -76 -6 7 300 155 322 156 6 0 -64
-35 -154 -80z m563 66 c-4 -8 -11 -15 -18 -15 -6 0 -4 -5 4 -10 11 -7 8 -10
-15 -10 l-30 1 28 24 c33 29 39 31 31 10z m-157 -55 c1 -11 -3 -20 -8 -20 -6
0 -7 -4 -4 -10 3 -6 -1 -7 -9 -4 -9 3 -16 2 -16 -4 0 -12 -79 -52 -103 -52 -9
0 -17 -4 -17 -9 0 -11 -155 -105 -190 -116 -14 -4 -30 -11 -36 -16 -21 -17
-167 -89 -171 -85 -3 3 -25 -4 -49 -14 -24 -11 -44 -18 -44 -16 0 7 121 81
178 110 30 15 52 29 50 32 -3 2 -51 -21 -109 -52 -57 -31 -120 -62 -139 -70
l-35 -14 25 19 c24 19 262 141 275 141 3 0 3 -5 -1 -11 -4 -7 -1 -10 7 -7 8 3
13 11 11 17 -1 7 2 10 7 6 6 -3 49 15 98 40 48 25 93 43 100 41 7 -3 12 -1 10
5 -1 5 27 25 63 44 36 19 61 35 55 35 -5 1 4 7 20 15 17 7 30 14 30 14 1 1 1
-8 2 -19z m303 16 c0 -2 -7 -6 -15 -10 -8 -3 -15 -1 -15 4 0 6 7 10 15 10 8 0
15 -2 15 -4z m6872 -74 c15 -6 16 -10 5 -32 -20 -40 -76 -23 -62 19 6 21 25
25 57 13z m-6797 -12 c-3 -5 -11 -10 -16 -10 -6 0 -7 5 -4 10 3 6 11 10 16 10
6 0 7 -4 4 -10z m-2485 -14 c0 -2 -7 -7 -16 -10 -8 -3 -12 -2 -9 4 6 10 25 14
25 6z m2460 -25 c0 -11 -11 -32 -24 -48 -43 -52 0 -74 58 -30 17 13 41 26 53
29 20 5 21 4 13 -13 -9 -15 -7 -18 7 -13 10 3 -4 -15 -32 -40 -27 -25 -55 -46
-62 -46 -7 0 -13 -4 -13 -9 0 -4 -11 -7 -25 -6 -14 2 -23 -1 -19 -6 3 -5 0 -9
-5 -9 -20 0 -26 -2 -50 -21 -13 -10 -28 -16 -34 -12 -6 4 -8 0 -4 -10 4 -11 2
-14 -9 -10 -7 3 -14 0 -14 -6 0 -6 -12 -11 -27 -12 l-28 -1 25 -8 c17 -6 19
-8 7 -9 -10 -1 -20 -8 -23 -16 -4 -8 -12 -15 -19 -15 -7 0 -61 -25 -120 -55
-59 -30 -158 -70 -219 -89 -195 -60 -257 -78 -279 -81 -12 -2 -37 -6 -54 -10
-22 -5 -33 -4 -33 4 0 6 7 11 15 11 8 0 15 4 15 8 0 5 18 14 40 21 22 7 38 16
35 21 -3 5 -13 6 -22 3 -11 -4 -14 -3 -9 6 5 8 19 10 37 6 18 -4 29 -3 29 4 0
6 -5 11 -12 11 -6 0 -3 7 8 15 10 8 29 15 42 15 12 0 22 6 22 14 0 8 7 16 15
20 8 3 20 17 27 31 9 20 16 24 37 19 20 -4 23 -3 11 5 -12 8 -7 11 21 11 20 0
42 7 49 15 7 8 22 15 33 15 11 0 17 3 14 7 -10 9 31 35 43 28 6 -4 18 -1 27 7
9 7 17 12 17 11 3 -7 46 11 46 18 0 5 6 9 13 9 6 0 30 16 52 36 22 19 66 56
98 81 59 47 69 60 41 49 -14 -6 -15 -4 -4 9 10 12 15 13 21 4 6 -10 11 -10 23
0 13 11 17 11 22 -3 10 -25 33 -19 75 19 45 40 49 42 49 16z m-110 -1 c0 -5
-5 -10 -11 -10 -5 0 -7 5 -4 10 3 6 8 10 11 10 2 0 4 -4 4 -10z m847 -4 c-3
-7 0 -19 6 -26 9 -10 9 -11 0 -6 -6 3 -14 2 -18 -3 -3 -5 -14 -9 -25 -8 -14 1
-16 4 -8 14 13 16 22 17 12 2 -4 -7 -1 -10 7 -7 8 3 15 10 15 16 3 29 4 32 10
32 3 0 4 -6 1 -14z m-3237 -225 c0 -5 -7 -12 -16 -15 -14 -5 -15 -4 -4 9 14
17 20 19 20 6z m1490 -15 c0 -2 -7 -7 -16 -10 -8 -3 -12 -2 -9 4 6 10 25 14
25 6z m-1465 -36 c-27 -12 -43 -12 -25 0 8 5 22 9 30 9 10 0 8 -3 -5 -9z
m1405 -10 c0 -5 -2 -10 -4 -10 -3 0 -8 5 -11 10 -3 6 -1 10 4 10 6 0 11 -4 11
-10z m-60 -30 c0 -5 -5 -10 -11 -10 -5 0 -7 5 -4 10 3 6 8 10 11 10 2 0 4 -4
4 -10z m8514 -61 c-3 -5 -10 -7 -15 -3 -5 3 -7 10 -3 15 3 5 10 7 15 3 5 -3 7
-10 3 -15z m-8267 -95 c-3 -3 -12 -4 -19 -1 -8 3 -5 6 6 6 11 1 17 -2 13 -5z
m118 -164 c1 -10 -2 -17 -6 -14 -4 2 -7 13 -6 24 2 23 10 17 12 -10z m-45 -5
c0 -12 -19 -12 -23 0 -4 9 -1 12 9 8 7 -3 14 -7 14 -8z m-2210 -775 c0 -5 -5
-10 -11 -10 -5 0 -7 5 -4 10 3 6 8 10 11 10 2 0 4 -4 4 -10z m8740 -174 c0 -3
-4 -8 -10 -11 -5 -3 -10 -1 -10 4 0 6 5 11 10 11 6 0 10 -2 10 -4z m-1290
-300 c0 -3 -4 -8 -10 -11 -5 -3 -10 -1 -10 4 0 6 5 11 10 11 6 0 10 -2 10 -4z
m1360 -354 c0 -13 -12 -22 -22 -16 -10 6 -1 24 13 24 5 0 9 -4 9 -8z m-110
-92 c0 -5 -4 -10 -9 -10 -6 0 -13 5 -16 10 -3 6 1 10 9 10 9 0 16 -4 16 -10z
m50 -30 c0 -5 -4 -10 -10 -10 -5 0 -10 5 -10 10 0 6 5 10 10 10 6 0 10 -4 10
-10z m-12390 -150 c0 -5 -4 -10 -10 -10 -5 0 -10 5 -10 10 0 6 5 10 10 10 6 0
10 -4 10 -10z m12090 -10 c0 -5 -4 -10 -10 -10 -5 0 -10 5 -10 10 0 6 5 10 10
10 6 0 10 -4 10 -10z m-190 -205 c0 -8 -7 -15 -15 -15 -8 0 -15 7 -15 15 0 8
7 15 15 15 8 0 15 -7 15 -15z m0 -69 c0 -8 -5 -18 -10 -21 -17 -11 -40 3 -34
20 8 19 44 20 44 1z m3160 -38 c0 -5 -4 -8 -10 -8 -5 0 -10 10 -10 23 0 18 2
19 10 7 5 -8 10 -18 10 -22z m-3090 -28 c0 -5 -2 -10 -4 -10 -3 0 -8 5 -11 10
-3 6 -1 10 4 10 6 0 11 -4 11 -10z m-2400 -70 c0 -5 -4 -10 -10 -10 -5 0 -10
5 -10 10 0 6 5 10 10 10 6 0 10 -4 10 -10z m2810 -30 c0 -5 -4 -10 -10 -10 -5
0 -10 5 -10 10 0 6 5 10 10 10 6 0 10 -4 10 -10z m-12750 -34 c0 -3 -4 -8 -10
-11 -5 -3 -10 -1 -10 4 0 6 5 11 10 11 6 0 10 -2 10 -4z m12208 -71 c-17 -38
-66 -16 -53 24 5 17 10 18 35 10 26 -9 28 -13 18 -34z m432 35 c0 -5 -2 -10
-4 -10 -3 0 -8 5 -11 10 -3 6 -1 10 4 10 6 0 11 -4 11 -10z m-1663 -80 c-2
-23 -27 -14 -27 11 0 12 5 16 14 13 8 -3 14 -14 13 -24z m4941 8 c-7 -19 -38
-22 -38 -4 0 10 9 16 21 16 12 0 19 -5 17 -12z m-3233 -18 c3 -5 1 -10 -4 -10
-6 0 -11 5 -11 10 0 6 2 10 4 10 3 0 8 -4 11 -10z m-75 -80 c0 -5 -4 -10 -10
-10 -5 0 -10 5 -10 10 0 6 5 10 10 10 6 0 10 -4 10 -10z m-100 -70 c0 -5 -4
-10 -10 -10 -5 0 -10 5 -10 10 0 6 5 10 10 10 6 0 10 -4 10 -10z m-12620 -70
c0 -5 -5 -10 -11 -10 -5 0 -7 5 -4 10 3 6 8 10 11 10 2 0 4 -4 4 -10z m15233
-65 c1 -5 -6 -11 -15 -13 -11 -2 -18 3 -18 13 0 17 30 18 33 0z m-15383 -35
c0 -5 -4 -10 -10 -10 -5 0 -10 5 -10 10 0 6 5 10 10 10 6 0 10 -4 10 -10z
m10310 -70 c0 -5 -4 -10 -10 -10 -5 0 -10 5 -10 10 0 6 5 10 10 10 6 0 10 -4
10 -10z m6179 -279 c16 -10 6 -31 -14 -31 -17 0 -28 17 -20 30 8 12 16 12 34
1z m-16279 -15 c0 -3 -4 -8 -10 -11 -5 -3 -10 -1 -10 4 0 6 5 11 10 11 6 0 10
-2 10 -4z m15070 -105 c0 -14 -5 -18 -20 -14 -11 3 -20 12 -20 19 0 8 9 14 20
14 13 0 20 -7 20 -19z m-14830 -86 c0 -8 -4 -15 -10 -15 -5 0 -10 7 -10 15 0
8 5 15 10 15 6 0 10 -7 10 -15z m8585 -5 c3 -5 1 -10 -4 -10 -6 0 -11 5 -11
10 0 6 2 10 4 10 3 0 8 -4 11 -10z m3285 -181 c0 -6 -4 -7 -10 -4 -5 3 -10 11
-10 16 0 6 5 7 10 4 6 -3 10 -11 10 -16z m-1012 -18 c10 -6 11 -13 1 -34 -13
-29 -14 -30 -47 -21 -13 4 -21 13 -20 23 6 35 37 51 66 32z m3750 -15 c3 -12
-1 -17 -10 -14 -7 3 -15 13 -16 22 -3 12 1 17 10 14 7 -3 15 -13 16 -22z
m-5898 -16 c0 -5 -5 -10 -11 -10 -5 0 -7 5 -4 10 3 6 8 10 11 10 2 0 4 -4 4
-10z m2955 -120 c3 -5 1 -10 -4 -10 -6 0 -11 5 -11 10 0 6 2 10 4 10 3 0 8 -4
11 -10z m4425 -105 c0 -8 -6 -15 -14 -15 -17 0 -28 14 -19 24 12 12 33 6 33
-9z m-4454 -86 c9 -15 -11 -33 -30 -26 -9 4 -13 13 -10 22 7 17 30 20 40 4z
m-12466 -23 c0 -3 -4 -8 -10 -11 -5 -3 -10 -1 -10 4 0 6 5 11 10 11 6 0 10 -2
10 -4z m1100 -56 c0 -5 -5 -10 -11 -10 -5 0 -7 5 -4 10 3 6 8 10 11 10 2 0 4
-4 4 -10z m20 -90 c0 -5 -2 -10 -4 -10 -3 0 -8 5 -11 10 -3 6 -1 10 4 10 6 0
11 -4 11 -10z m9440 -50 c0 -5 -4 -10 -10 -10 -5 0 -10 5 -10 10 0 6 5 10 10
10 6 0 10 -4 10 -10z m360 -10 c0 -5 -5 -10 -11 -10 -5 0 -7 5 -4 10 3 6 8 10
11 10 2 0 4 -4 4 -10z m-1850 -10 c0 -5 -4 -10 -10 -10 -5 0 -10 5 -10 10 0 6
5 10 10 10 6 0 10 -4 10 -10z m960 -40 c0 -5 -4 -10 -10 -10 -5 0 -10 5 -10
10 0 6 5 10 10 10 6 0 10 -4 10 -10z m-2210 -105 c0 -8 -4 -15 -10 -15 -5 0
-10 7 -10 15 0 8 5 15 10 15 6 0 10 -7 10 -15z m3765 -124 c7 -12 -12 -24 -25
-16 -11 7 -4 25 10 25 5 0 11 -4 15 -9z m1365 -21 c0 -5 -4 -10 -10 -10 -5 0
-10 5 -10 10 0 6 5 10 10 10 6 0 10 -4 10 -10z m3941 -30 c8 0 5 -33 -5 -48
-4 -6 -5 -16 -2 -21 3 -5 -10 -5 -32 1 -20 5 -42 10 -48 10 -8 1 -8 12 -2 38
10 37 10 37 46 29 21 -5 40 -9 43 -9z m-16651 -90 c0 -5 -4 -10 -10 -10 -5 0
-10 5 -10 10 0 6 5 10 10 10 6 0 10 -4 10 -10z m5860 -70 c0 -5 -4 -10 -10
-10 -5 0 -10 5 -10 10 0 6 5 10 10 10 6 0 10 -4 10 -10z m4140 -20 c0 -5 -2
-10 -4 -10 -3 0 -8 5 -11 10 -3 6 -1 10 4 10 6 0 11 -4 11 -10z m-8940 -61 c0
-5 -7 -9 -15 -9 -15 0 -20 12 -9 23 8 8 24 -1 24 -14z m-1670 -19 c0 -5 -4
-10 -10 -10 -5 0 -10 5 -10 10 0 6 5 10 10 10 6 0 10 -4 10 -10z m11260 -16
c0 -17 -22 -14 -28 4 -2 7 3 12 12 12 9 0 16 -7 16 -16z m1525 -14 c3 -5 1
-10 -4 -10 -6 0 -11 5 -11 10 0 6 2 10 4 10 3 0 8 -4 11 -10z m-7325 -40 c0
-5 -5 -10 -11 -10 -5 0 -7 5 -4 10 3 6 8 10 11 10 2 0 4 -4 4 -10z m-3300 -40
c0 -5 -4 -10 -10 -10 -5 0 -10 5 -10 10 0 6 5 10 10 10 6 0 10 -4 10 -10z
m3510 -10 c0 -5 -4 -10 -10 -10 -5 0 -10 5 -10 10 0 6 5 10 10 10 6 0 10 -4
10 -10z m-3410 -70 c0 -5 -7 -10 -15 -10 -8 0 -15 5 -15 10 0 6 7 10 15 10 8
0 15 -4 15 -10z m4112 -5 c0 -5 -5 -11 -11 -13 -6 -2 -11 4 -11 13 0 9 5 15
11 13 6 -2 11 -8 11 -13z m4886 -13 c2 -7 -3 -12 -12 -12 -9 0 -16 7 -16 16 0
17 22 14 28 -4z m-1138 4 c0 -3 -4 -8 -10 -11 -5 -3 -10 -1 -10 4 0 6 5 11 10
11 6 0 10 -2 10 -4z m880 -41 c0 -8 -4 -15 -10 -15 -5 0 -10 7 -10 15 0 8 5
15 10 15 6 0 10 -7 10 -15z m85 5 c3 -5 2 -17 -2 -25 -8 -13 -12 -13 -27 -2
-11 8 -16 19 -12 25 9 15 33 16 41 2z m-1655 -66 c0 -8 -7 -14 -15 -14 -8 0
-15 9 -15 20 0 13 5 18 15 14 8 -4 15 -12 15 -20z m-7260 6 c0 -5 -4 -10 -10
-10 -5 0 -10 5 -10 10 0 6 5 10 10 10 6 0 10 -4 10 -10z m8580 -41 c0 -20 -8
-23 -28 -11 -17 11 -4 42 14 35 8 -3 14 -14 14 -24z m431 -112 c-1 -12 -15 -9
-19 4 -3 6 1 10 8 8 6 -3 11 -8 11 -12z m-8051 -7 c0 -5 -4 -10 -10 -10 -5 0
-10 5 -10 10 0 6 5 10 10 10 6 0 10 -4 10 -10z m7286 -21 c8 -14 -11 -33 -25
-25 -11 7 -4 36 9 36 5 0 12 -5 16 -11z m-1281 -59 c-5 -8 -11 -8 -17 -2 -6 6
-7 16 -3 22 5 8 11 8 17 2 6 -6 7 -16 3 -22z m-390 2 c0 -18 -20 -15 -23 4 -3
10 1 15 10 12 7 -3 13 -10 13 -16z m2145 -3 c0 -5 -7 -9 -15 -9 -15 0 -20 12
-9 23 8 8 24 -1 24 -14z m-1710 -4 c0 -8 -4 -15 -9 -15 -13 0 -22 16 -14 24
11 11 23 6 23 -9z m1470 -1 c0 -17 -22 -14 -28 4 -2 7 3 12 12 12 9 0 16 -7
16 -16z m-1870 -19 c0 -8 -7 -15 -15 -15 -16 0 -20 12 -8 23 11 12 23 8 23 -8z
m1678 -22 c-2 -10 -10 -18 -18 -18 -8 0 -16 8 -18 18 -2 12 3 17 18 17 15 0
20 -5 18 -17z m-18 -57 c0 -8 -4 -17 -8 -20 -13 -8 -35 11 -28 23 10 16 36 14
36 -3z m-1026 -49 c20 -15 11 -51 -11 -43 -8 3 -18 6 -22 6 -5 0 -6 11 -3 25
5 28 11 30 36 12z m-9294 -31 c0 -11 -19 -15 -25 -6 -3 5 1 10 9 10 9 0 16 -2
16 -4z m9020 -6 c0 -5 -4 -10 -10 -10 -5 0 -10 5 -10 10 0 6 5 10 10 10 6 0
10 -4 10 -10z m-360 -55 c0 -8 -7 -15 -15 -15 -16 0 -20 12 -8 23 11 12 23 8
23 -8z m1390 -31 c0 -8 -4 -12 -10 -9 -5 3 -10 10 -10 16 0 5 5 9 10 9 6 0 10
-7 10 -16z m-1812 -68 c23 -8 27 -22 13 -45 -5 -8 -16 -11 -31 -6 -17 5 -20
12 -16 31 4 14 2 24 -4 24 -6 0 -8 5 -4 11 4 7 9 7 13 1 3 -5 16 -12 29 -16z
m1592 -1 c0 -8 -4 -15 -9 -15 -13 0 -22 16 -14 24 11 11 23 6 23 -9z m-4820
-45 c0 -5 -7 -10 -16 -10 -8 0 -12 5 -9 10 3 6 10 10 16 10 5 0 9 -4 9 -10z
m3053 -26 c11 -11 -5 -34 -24 -34 -18 0 -26 20 -12 33 8 9 28 9 36 1z m2057
-88 c-13 -13 -35 7 -25 24 5 8 11 8 21 -1 10 -8 12 -15 4 -23z m-6815 14 c3
-5 1 -10 -4 -10 -6 0 -11 5 -11 10 0 6 2 10 4 10 3 0 8 -4 11 -10z m5018 -16
c-3 -8 -9 -14 -13 -14 -13 0 -22 19 -15 30 9 14 34 0 28 -16z m-3 -34 c0 -5
-4 -10 -9 -10 -6 0 -13 5 -16 10 -3 6 1 10 9 10 9 0 16 -4 16 -10z m220 -11
c0 -5 -7 -9 -15 -9 -15 0 -20 12 -9 23 8 8 24 -1 24 -14z m130 11 c0 -5 -4
-10 -10 -10 -5 0 -10 5 -10 10 0 6 5 10 10 10 6 0 10 -4 10 -10z m-980 -90 c0
-11 -6 -20 -14 -20 -18 0 -29 16 -21 30 11 18 35 11 35 -10z m570 -20 c0 -13
-19 -22 -30 -15 -14 9 0 34 16 28 8 -3 14 -9 14 -13z m-600 -50 c0 -5 -4 -10
-10 -10 -5 0 -10 5 -10 10 0 6 5 10 10 10 6 0 10 -4 10 -10z m320 -15 c0 -8
-4 -15 -9 -15 -13 0 -22 16 -14 24 11 11 23 6 23 -9z m1402 -80 c0 -5 -5 -11
-11 -13 -6 -2 -11 4 -11 13 0 9 5 15 11 13 6 -2 11 -8 11 -13z m-2202 -95 c0
-5 -4 -10 -10 -10 -5 0 -10 5 -10 10 0 6 5 10 10 10 6 0 10 -4 10 -10z m1985
-60 c3 -5 1 -10 -4 -10 -6 0 -11 5 -11 10 0 6 2 10 4 10 3 0 8 -4 11 -10z
m-3781 -8 c8 -13 -5 -52 -18 -52 -24 0 -38 18 -31 39 6 21 39 29 49 13z m1946
-42 c0 -5 -4 -10 -10 -10 -5 0 -10 5 -10 10 0 6 5 10 10 10 6 0 10 -4 10 -10z
m-180 -76 c0 -8 -4 -12 -10 -9 -5 3 -10 10 -10 16 0 5 5 9 10 9 6 0 10 -7 10
-16z m1680 -30 c0 -19 -28 -30 -42 -16 -5 5 -7 19 -3 31 5 17 10 19 26 11 10
-6 19 -17 19 -26z m-1530 -4 c0 -5 -4 -10 -10 -10 -5 0 -10 5 -10 10 0 6 5 10
10 10 6 0 10 -4 10 -10z m3078 -54 c3 -12 -1 -17 -10 -14 -7 3 -15 13 -16 22
-3 12 1 17 10 14 7 -3 15 -13 16 -22z m-3208 -47 c0 -5 -7 -9 -15 -9 -15 0
-20 12 -9 23 8 8 24 -1 24 -14z m-4365 -19 c-3 -5 -11 -10 -16 -10 -6 0 -7 5
-4 10 3 6 11 10 16 10 6 0 7 -4 4 -10z m5963 -14 c3 -12 -1 -17 -10 -14 -7 3
-15 13 -16 22 -3 12 1 17 10 14 7 -3 15 -13 16 -22z m-7498 -51 c-5 -7 -8 -14
-5 -17 12 -11 -26 -30 -49 -24 -22 5 -23 8 -14 40 10 32 12 33 44 23 24 -7 31
-14 24 -22z m8786 4 c9 -15 -11 -33 -30 -26 -9 4 -13 13 -10 22 7 17 30 20 40
4z m-5436 -109 c0 -5 -4 -10 -10 -10 -5 0 -10 5 -10 10 0 6 5 10 10 10 6 0 10
-4 10 -10z m2760 -20 c0 -5 -7 -10 -15 -10 -8 0 -15 5 -15 10 0 6 7 10 15 10
8 0 15 -4 15 -10z m-2502 -73 c4 -20 -25 -34 -40 -19 -15 15 -1 44 19 40 10
-2 19 -11 21 -21z m3280 -64 c-4 -22 -22 -20 -26 1 -2 10 3 16 13 16 10 0 15
-7 13 -17z m-3482 -40 c-10 -10 -19 5 -10 18 6 11 8 11 12 0 2 -7 1 -15 -2
-18z m2974 12 c0 -8 -6 -15 -14 -15 -17 0 -28 14 -19 24 12 12 33 6 33 -9z
m-3874 -32 c-10 -10 -19 5 -10 18 6 11 8 11 12 0 2 -7 1 -15 -2 -18z m352 0
c-4 -22 -22 -20 -26 1 -2 10 3 16 13 16 10 0 15 -7 13 -17z m-1963 -23 c-3 -5
-10 -10 -16 -10 -5 0 -9 5 -9 10 0 6 7 10 16 10 8 0 12 -4 9 -10z m3055 -10
c0 -5 -5 -10 -11 -10 -5 0 -7 5 -4 10 3 6 8 10 11 10 2 0 4 -4 4 -10z m-2440
-30 c0 -5 -4 -10 -10 -10 -5 0 -10 5 -10 10 0 6 5 10 10 10 6 0 10 -4 10 -10z
m4820 0 c0 -5 -5 -10 -11 -10 -5 0 -7 5 -4 10 3 6 8 10 11 10 2 0 4 -4 4 -10z
m-5560 -68 c0 -13 -12 -22 -22 -16 -10 6 -1 24 13 24 5 0 9 -4 9 -8z m890 -22
c0 -5 -4 -10 -10 -10 -5 0 -10 5 -10 10 0 6 5 10 10 10 6 0 10 -4 10 -10z
m4535 -20 c0 -22 -29 -18 -33 3 -3 14 1 18 15 15 10 -2 18 -10 18 -18z m-5340
1 c3 -5 1 -12 -5 -16 -5 -3 -10 1 -10 9 0 18 6 21 15 7z m5005 -16 c0 -8 -4
-15 -9 -15 -13 0 -22 16 -14 24 11 11 23 6 23 -9z m-3710 -40 c0 -8 -4 -15 -9
-15 -13 0 -22 16 -14 24 11 11 23 6 23 -9z m820 -9 c0 -8 -4 -17 -9 -21 -12
-7 -24 12 -16 25 9 15 25 12 25 -4z m1885 4 c-3 -5 -10 -10 -16 -10 -5 0 -9 5
-9 10 0 6 7 10 16 10 8 0 12 -4 9 -10z m-3495 -15 c0 -8 -7 -15 -15 -15 -8 0
-15 7 -15 15 0 8 7 15 15 15 8 0 15 -7 15 -15z m930 -4 c0 -11 -4 -22 -8 -25
-14 -9 -35 12 -29 28 9 23 37 20 37 -3z m5710 -11 c0 -5 -4 -10 -10 -10 -5 0
-10 5 -10 10 0 6 5 10 10 10 6 0 10 -4 10 -10z m-5742 -18 c15 -10 5 -42 -13
-42 -18 0 -26 15 -19 34 7 18 13 19 32 8z m245 -27 c-6 -17 -25 -15 -31 3 -2
7 5 12 17 12 14 0 19 -5 14 -15z m-1010 -1 c11 -11 -5 -34 -24 -34 -18 0 -26
20 -12 33 8 9 28 9 36 1z m4417 -49 c0 -15 -6 -25 -14 -25 -23 0 -28 17 -10
34 21 21 24 20 24 -9z m9472 -122 c8 -10 6 -13 -6 -13 -14 0 -16 12 -14 83 l2
82 3 -70 c2 -38 9 -75 15 -82z m48 83 c0 -35 3 -71 6 -80 4 -11 1 -16 -10 -16
-13 0 -16 13 -16 80 0 47 4 80 10 80 6 0 10 -28 10 -64z m-14190 40 c0 -8 -5
-18 -11 -22 -14 -8 -33 11 -25 25 10 16 36 13 36 -3z m3383 -2 c12 -4 13 -11
5 -35 -5 -16 -16 -29 -23 -29 -20 0 -37 27 -30 50 6 20 21 25 48 14z m10459
-56 l12 -33 13 33 c17 41 27 41 40 0 l10 -33 13 33 c20 53 29 36 11 -23 -9
-30 -19 -55 -23 -55 -3 0 -12 17 -19 38 l-12 37 -12 -35 c-6 -19 -16 -34 -20
-33 -8 2 -34 75 -35 96 0 18 12 4 22 -25z m232 10 c9 -12 16 -36 16 -53 0 -29
-3 -31 -37 -32 -68 -2 -99 36 -69 82 21 33 69 34 90 3z m231 11 c11 -17 -3
-23 -20 -9 -16 13 -45 7 -45 -9 0 -5 14 -12 31 -16 35 -8 47 -28 29 -50 -22
-27 -80 -13 -80 19 0 6 5 5 12 -2 16 -16 61 -16 56 0 -3 7 -19 16 -36 20 -33
9 -45 41 -19 51 22 10 66 7 72 -4z m-13820 -29 c-5 -8 -11 -8 -17 -2 -6 6 -7
16 -3 22 5 8 11 8 17 2 6 -6 7 -16 3 -22z m13198 10 c-13 -5 -25 -21 -29 -37
-10 -49 -12 -49 -13 -3 -1 44 0 45 32 47 28 1 29 0 10 -7z m105 -2 c23 -23 13
-38 -23 -38 -42 0 -46 -14 -7 -28 22 -9 23 -11 7 -11 -27 -1 -45 17 -45 44 0
25 18 45 40 45 9 0 21 -5 28 -12z m658 0 c5 -8 2 -9 -9 -5 -26 10 -47 -3 -47
-28 0 -25 21 -38 47 -28 11 4 14 3 9 -5 -18 -29 -66 -5 -66 33 0 38 48 62 66
33z m94 -2 c28 -35 -11 -93 -47 -70 -36 22 -23 84 17 84 10 0 23 -7 30 -14z
m151 -7 c5 -8 8 -27 7 -44 l-1 -30 -4 30 c-10 64 -52 69 -54 6 -2 -34 -2 -34
-6 -6 -10 64 -49 69 -56 7 -3 -34 -4 -33 -5 9 l-2 46 56 -2 c35 -1 59 -7 65
-16z m-331 -59 c0 -5 -4 -10 -10 -10 -5 0 -10 5 -10 10 0 6 5 10 10 10 6 0 10
-4 10 -10z"/>
<path d="M7836 8766 c-18 -39 -20 -50 -7 -41 5 3 12 1 16 -5 10 -16 23 -12 35
10 9 16 7 24 -5 36 -8 9 -13 20 -10 25 4 5 2 9 -3 9 -5 0 -17 -15 -26 -34z
m34 -21 c0 -8 -4 -17 -10 -20 -5 -3 -10 -2 -10 4 0 5 -3 17 -6 25 -5 12 -2 15
10 10 9 -3 16 -12 16 -19z"/>
<path d="M7870 8649 c-16 -30 -8 -31 13 -3 10 13 13 24 8 24 -6 0 -15 -9 -21
-21z"/>
<path d="M7603 8644 c-14 -6 -6 -34 9 -34 6 0 8 6 5 14 -3 8 -1 17 6 20 7 2 8
4 2 4 -5 0 -15 -2 -22 -4z"/>
<path d="M7830 8590 c-6 -11 -8 -31 -4 -44 5 -22 8 -23 20 -11 16 15 19 75 4
75 -5 0 -14 -9 -20 -20z"/>
<path d="M7604 8589 c-8 -13 23 -44 54 -54 30 -9 28 10 -4 40 -30 28 -40 30
-50 14z"/>
<path d="M7910 8532 c0 -6 -10 -14 -21 -17 -17 -6 -19 -9 -8 -16 8 -5 17 -9
20 -9 8 0 20 42 14 49 -3 2 -5 -1 -5 -7z"/>
<path d="M7861 8449 c-14 -40 -15 -71 -2 -50 5 7 14 10 20 7 7 -5 11 6 11 33
0 49 -14 53 -29 10z"/>
<path d="M9765 8450 c-4 -6 -11 -7 -17 -4 -7 4 -8 2 -4 -5 6 -9 11 -9 22 0 14
11 18 19 10 19 -3 0 -8 -5 -11 -10z"/>
<path d="M8025 8440 c-16 -7 -17 -9 -3 -9 9 -1 20 4 23 9 7 11 7 11 -20 0z"/>
<path d="M9685 8430 c-3 -5 -2 -10 4 -10 5 0 13 5 16 10 3 6 2 10 -4 10 -5 0
-13 -4 -16 -10z"/>
<path d="M7985 8340 c3 -5 15 -10 26 -10 11 0 17 5 14 10 -3 6 -15 10 -26 10
-11 0 -17 -4 -14 -10z"/>
<path d="M7849 8303 c-1 -4 -1 -16 0 -25 1 -10 -4 -18 -13 -18 -19 0 -21 -26
-3 -33 10 -4 10 -6 0 -6 -18 -1 -16 -38 2 -45 8 -3 15 -12 15 -20 0 -8 9 -22
21 -30 35 -24 13 -36 -61 -33 -38 1 -64 -1 -57 -5 8 -5 5 -8 -8 -9 -11 0 -14
-3 -7 -6 6 -2 12 -18 12 -34 0 -16 5 -29 11 -29 5 0 7 -5 4 -11 -14 -21 -12
-59 2 -59 8 0 11 -5 7 -12 -5 -8 -2 -9 9 -5 10 3 17 2 17 -4 0 -6 6 -7 13 -2
6 4 18 8 25 9 20 3 25 11 17 24 -6 9 -10 9 -17 -1 -6 -11 -8 -9 -6 6 7 48 43
58 71 19 19 -25 19 -25 -2 -31 -24 -6 -28 -23 -6 -23 8 0 15 -4 15 -9 0 -5 9
-13 20 -16 34 -11 7 -45 -35 -45 -18 0 -37 -5 -40 -11 -4 -6 -13 -8 -20 -5 -7
2 -16 -2 -19 -11 -6 -13 0 -15 41 -9 27 4 56 7 65 7 10 0 20 5 23 10 4 5 10 7
15 4 5 -3 24 2 42 11 l33 18 -25 7 c-16 4 -19 7 -7 8 9 1 17 5 17 10 0 5 -8
12 -17 14 -13 3 -10 5 7 6 23 2 22 3 -12 22 -43 22 -48 36 -17 41 16 2 8 10
-36 33 -31 16 -51 31 -45 33 7 3 16 -2 21 -9 7 -11 9 -10 9 4 0 11 8 17 24 17
14 0 28 5 31 10 3 6 17 10 31 10 17 0 24 5 24 20 0 25 -17 26 -23 3 -4 -16 -5
-16 -6 -1 -1 10 -13 19 -33 23 -18 4 -40 18 -50 30 -10 13 -33 26 -53 29 -19
4 -35 11 -35 15 0 12 92 41 129 41 23 0 29 4 25 15 -7 17 -59 21 -69 5 -12
-20 -32 -9 -41 22 -9 29 -32 51 -35 31z m-34 -322 c3 -5 1 -12 -5 -16 -5 -3
-10 1 -10 9 0 18 6 21 15 7z"/>
<path d="M8095 8290 c-8 -13 15 -13 35 0 12 8 11 10 -7 10 -12 0 -25 -4 -28
-10z"/>
<path d="M8010 8270 c0 -5 5 -10 10 -10 6 0 10 5 10 10 0 6 -4 10 -10 10 -5 0
-10 -4 -10 -10z"/>
<path d="M8079 8108 c0 -13 -3 -17 -6 -9 -4 11 -7 11 -13 1 -5 -8 -2 -19 6
-27 15 -16 45 -14 45 2 0 12 41 35 51 29 5 -3 14 -2 20 2 15 10 -21 22 -69 23
-28 1 -33 -3 -34 -21z"/>
<path d="M8130 8010 c0 -5 5 -10 11 -10 5 0 7 5 4 10 -3 6 -8 10 -11 10 -2 0
-4 -4 -4 -10z"/>
<path d="M8142 7962 c-12 -2 -19 -8 -16 -14 4 -6 1 -13 -5 -17 -7 -5 6 -13 30
-21 33 -11 43 -12 47 -2 2 7 13 12 25 12 18 0 19 2 7 10 -13 9 -13 11 0 21 11
8 6 9 -19 4 -18 -4 -36 -3 -40 2 -3 4 -16 7 -29 5z"/>
<path d="M7656 7911 c-4 -7 -5 -15 -2 -18 9 -9 19 4 14 18 -4 11 -6 11 -12 0z"/>
<path d="M7696 7903 c-9 -9 -8 -25 2 -20 13 8 52 -12 52 -28 0 -8 5 -15 10
-15 6 0 10 5 10 10 0 6 7 10 15 10 8 0 15 7 15 15 0 8 -7 15 -15 15 -8 0 -15
-5 -15 -12 0 -6 -6 -3 -14 7 -14 19 -48 29 -60 18z"/>
<path d="M10873 9085 c-9 -25 4 -29 17 -6 7 15 7 21 0 21 -6 0 -13 -7 -17 -15z"/>
<path d="M10810 8935 c-13 -14 -19 -25 -13 -25 6 0 14 6 16 13 3 7 6 4 6 -6 1
-10 6 -15 11 -12 6 3 10 2 10 -4 0 -6 7 -8 15 -5 8 4 22 1 30 -6 13 -11 14
-10 9 4 -3 9 -11 16 -16 16 -6 0 -5 6 2 15 15 18 -1 20 -18 3 -9 -9 -12 -8
-12 4 0 28 -16 29 -40 3z"/>
<path d="M10730 8920 c0 -5 5 -10 11 -10 5 0 7 5 4 10 -3 6 -8 10 -11 10 -2 0
-4 -4 -4 -10z"/>
<path d="M10716 8892 c-3 -5 1 -9 9 -9 8 0 12 4 9 9 -3 4 -7 8 -9 8 -2 0 -6
-4 -9 -8z"/>
<path d="M11040 8871 c0 -5 5 -13 10 -16 6 -3 10 -2 10 4 0 5 -4 13 -10 16 -5
3 -10 2 -10 -4z"/>
<path d="M10725 8850 c1 -8 -5 -24 -13 -35 -10 -12 -11 -15 -2 -7 17 14 34 16
25 2 -4 -6 1 -7 11 -3 10 4 13 8 6 11 -7 2 -8 11 -3 26 7 17 5 22 -9 22 -10 0
-17 -7 -15 -16z"/>
<path d="M10687 8744 c-8 -14 3 -54 14 -54 11 0 11 17 0 44 -4 11 -10 15 -14
10z"/>
<path d="M11067 8653 c-11 -10 -8 -20 8 -37 16 -16 49 -11 39 5 -3 5 -10 6
-16 3 -6 -4 -8 -2 -5 3 8 12 -17 36 -26 26z"/>
<path d="M9729 7969 c-20 -15 -21 -19 -6 -19 9 0 17 5 17 11 0 6 7 9 15 6 8
-4 17 -2 20 2 11 18 -22 18 -46 0z"/>
<path d="M18470 105 c-15 -18 -10 -45 13 -59 34 -22 73 27 47 59 -16 19 -44
19 -60 0z"/>
<path d="M18213 93 c-24 -9 -13 -23 17 -23 32 0 40 14 14 24 -9 3 -16 6 -17 5
-1 0 -8 -3 -14 -6z"/>
<path d="M18963 93 c-18 -7 -16 -50 2 -57 24 -9 45 4 45 29 0 18 -22 40 -33
34 -1 0 -8 -3 -14 -6z"/>
</g>
</svg>
